<?xml version="1.0" encoding="UTF-8" standalone="no"?>
<!DOCTYPE svg PUBLIC "-//W3C//DTD SVG 1.1//EN"
"http://www.w3.org/Graphics/SVG/1.1/DTD/svg11.dtd">
<svg width="64px" height="64px"
xmlns="http://www.w3.org/2000/svg" version="1.1">
<g transform="translate(0000, 0000) scale(1.0000, 1.0000)">
<path fill="#0000cc" stroke="none" d="
M 0.00 61.69
C 0.00 59.45 0.26 59.38 9.75 59.30
C 41.68 59.00 60.29 41.33 62.96 8.74
C 63.50 2.14 63.76 8.70 63.86 31.75
L 64.00 64.00
L 32.00 64.00
L 0.00 64.00
L 0.00 61.69"/>
<path fill="#0000cc" stroke="none" d="
M 0.00 50.65
L 0.00 45.00
L 4.54 45.00
C 11.30 45.00 23.72 42.17 29.23 39.39
C 40.48 33.68 46.97 22.97 47.78 8.77
L 48.28 -0.00
L 54.17 0.00
L 60.06 0.00
L 59.43 6.75
C 56.41 39.07 41.48 54.11 10.79 55.73
L 0.00 56.30
L 0.00 50.65"/>
<path fill="#0000cc" stroke="none" d="
M 0.00 36.64
L 0.00 32.29
L 8.05 31.73
C 25.41 30.54 34.84 21.44 34.96 5.75
L 35.00 0.00
L 40.00 0.00
C 45.74 0.00 45.65 -0.27 43.98 11.28
C 41.25 30.15 26.95 41.00 4.82 41.00
L 0.00 41.00
L 0.00 36.64"/>
<path fill="#0000cc" stroke="none" d="
M 0.00 14.00
L 0.00 0.00
L 15.50 0.00
L 31.00 0.00
L 31.00 6.18
C 31.00 20.22 22.02 27.98 5.75 27.99
L 0.00 28.00
L 0.00 14.00
M 17.00 18.00
C 18.41 16.59 19.00 14.67 19.00 11.50
C 19.00 5.63 16.52 3.00 11.00 3.00
C 5.48 3.00 3.00 5.63 3.00 11.50
C 3.00 17.37 5.48 20.00 11.00 20.00
C 13.67 20.00 15.67 19.33 17.00 18.00"/>
<path fill="#0000cc" stroke="none" d="
M 8.12 13.22
C 6.88 10.90 8.49 8.00 11.01 8.00
C 13.52 8.00 15.14 11.00 13.87 13.28
C 12.61 15.52 9.33 15.49 8.12 13.22"/>
<path fill="#bbbbbb" stroke="none" d="
M 3.25 59.29
C 1.46 59.06 -0.00 58.29 0.00 57.59
C 0.00 56.65 2.96 56.14 10.79 55.73
C 41.92 54.09 55.91 39.74 59.53 5.75
C 59.96 1.72 60.57 0.00 61.57 0.00
C 63.51 0.00 63.46 10.14 61.49 19.50
C 57.42 38.81 44.40 52.85 26.43 57.33
C 19.87 58.96 8.28 59.94 3.25 59.29"/>
<path fill="#bbbbbb" stroke="none" d="
M 0.00 43.00
C 0.00 41.28 0.67 41.00 4.82 41.00
C 16.52 41.00 27.28 37.45 34.00 31.38
C 39.96 26.00 42.92 19.48 44.23 8.91
C 45.05 2.21 45.69 -0.00 46.80 -0.00
C 48.03 -0.00 48.19 1.47 47.78 8.77
C 46.97 22.97 40.48 33.68 29.23 39.39
C 23.72 42.17 11.30 45.00 4.54 45.00
C 0.67 45.00 0.00 44.71 0.00 43.00"/>
<path fill="#bbbbbb" stroke="none" d="
M -0.00 30.14
C -0.00 28.20 0.54 28.00 5.75 27.99
C 22.02 27.98 31.00 20.22 31.00 6.18
C 31.00 0.67 31.22 0.00 33.00 0.00
C 34.77 0.00 35.00 0.65 34.96 5.75
C 34.84 21.44 25.41 30.54 8.05 31.73
C 0.32 32.26 -0.00 32.20 -0.00 30.14"/>
<path fill="#bbbbbb" stroke="none" d="
M 5.00 18.00
C 3.59 16.59 3.00 14.67 3.00 11.50
C 3.00 5.63 5.48 3.00 11.00 3.00
C 16.52 3.00 19.00 5.63 19.00 11.50
C 19.00 17.37 16.52 20.00 11.00 20.00
C 8.33 20.00 6.33 19.33 5.00 18.00
M 13.87 13.28
C 15.14 11.00 13.52 8.00 11.01 8.00
C 8.49 8.00 6.88 10.90 8.12 13.22
C 9.33 15.49 12.61 15.52 13.87 13.28"/>
</g>
</svg>
